{
  "accessors": [
    {
      "bufferView": 2,
      "componentType": 5126,
      "count": 108,
      "max": [
        12.756677627563477,
        -64.499687194824219,
        140.88909912109375
      ],
      "min": [
        -12.756721496582031,
        -79.685791015625,
        132.51205444335938
      ],
      "type": "VEC3"
    },
    {
      "bufferView": 2,
      "byteOffset": 1296,
      "componentType": 5126,
      "count": 108,
      "max": [
        0.93475109338760376,
        -0.24476657807826996,
        0.89854717254638672
      ],
      "min": [
        -0.93475109338760376,
        -0.94710451364517212,
        -0.39873394370079041
      ],
      "type": "VEC3"
    },
    {
      "bufferView": 3,
      "componentType": 5126,
      "count": 108,
      "max": [
        0.925040602684021,
        0.93328022956848145,
        0.21214726567268372,
        1
      ],
      "min": [
        0.35475301742553711,
        -0.93327999114990234,
        -0.21213988959789276,
        1
      ],
      "type": "VEC4"
    },
    {
      "bufferView": 1,
      "componentType": 5126,
      "count": 108,
      "max": [
        0.48851001262664795,
        2.9163100719451904
      ],
      "min": [
        0.011488020420074463,
        2.8200099468231201
      ],
      "type": "VEC2"
    },
    {
      "bufferView": 0,
      "componentType": 5125,
      "count": 504,
      "max": [
        107
      ],
      "min": [
        0
      ],
      "type": "SCALAR"
    },
    {
      "bufferView": 2,
      "byteOffset": 2592,
      "componentType": 5126,
      "count": 1928,
      "max": [
        54.916606903076172,
        220.92903137207031,
        140.5050048828125
      ],
      "min": [
        -54.916805267333984,
        -48.769809722900391,
        -3.0187382698059082
      ],
      "type": "VEC3"
    },
    {
      "bufferView": 2,
      "byteOffset": 25728,
      "componentType": 5126,
      "count": 1928,
      "max": [
        0.99683964252471924,
        0.99994736909866333,
        0.99893409013748169
      ],
      "min": [
        -0.99684083461761475,
        -0.99989134073257446,
        -0.99999129772186279
      ],
      "type": "VEC3"
    },
    {
      "bufferView": 3,
      "byteOffset": 1728,
      "componentType": 5126,
      "count": 1928,
      "max": [
        1,
        0.9997374415397644,
        0.99679923057556152,
        1
      ],
      "min": [
        -0.99999803304672241,
        -0.99973750114440918,
        -0.99679923057556152,
        1
      ],
      "type": "VEC4"
    },
    {
      "bufferView": 1,
      "byteOffset": 864,
      "componentType": 5126,
      "count": 1928,
      "max": [
        1,
        0.9960939884185791
      ],
      "min": [
        0,
        0.0039059999398887157
      ],
      "type": "VEC2"
    },
    {
      "bufferView": 0,
      "byteOffset": 2016,
      "componentType": 5125,
      "count": 8706,
      "max": [
        1927
      ],
      "min": [
        0
      ],
      "type": "SCALAR"
    },
    {
      "bufferView": 2,
      "byteOffset": 48864,
      "componentType": 5126,
      "count": 1838,
      "max": [
        123.71802520751953,
        48.096927642822266,
        170.78303527832031
      ],
      "min": [
        -123.71799468994141,
        -90.662216186523438,
        64.65216064453125
      ],
      "type": "VEC3"
    },
    {
      "bufferView": 2,
      "byteOffset": 70920,
      "componentType": 5126,
      "count": 1838,
      "max": [
        0.99961012601852417,
        0.98637092113494873,
        0.999950110912323
      ],
      "min": [
        -0.99961018562316895,
        -0.99785590171813965,
        -0.99999988079071045
      ],
      "type": "VEC3"
    },
    {
      "bufferView": 3,
      "byteOffset": 32576,
      "componentType": 5126,
      "count": 1838,
      "max": [
        1,
        0.99986344575881958,
        0.99928861856460571,
        1
      ],
      "min": [
        -1,
        -0.9998633861541748,
        -0.99928885698318481,
        -1
      ],
      "type": "VEC4"
    },
    {
      "bufferView": 1,
      "byteOffset": 16288,
      "componentType": 5126,
      "count": 1838,
      "max": [
        1,
        1.9924099445343018
      ],
      "min": [
        0,
        1.0039099454879761
      ],
      "type": "VEC2"
    },
    {
      "bufferView": 0,
      "byteOffset": 36840,
      "componentType": 5125,
      "count": 8652,
      "max": [
        1837
      ],
      "min": [
        0
      ],
      "type": "SCALAR"
    },
    {
      "bufferView": 2,
      "byteOffset": 92976,
      "componentType": 5126,
      "count": 138,
      "max": [
        12.990589141845703,
        232.12603759765625,
        68.834114074707031
      ],
      "min": [
        -12.987910270690918,
        209.49205017089844,
        10.106088638305664
      ],
      "type": "VEC3"
    },
    {
      "bufferView": 2,
      "byteOffset": 94632,
      "componentType": 5126,
      "count": 138,
      "max": [
        0.99903321266174316,
        0.99903386831283569,
        0.99999457597732544
      ],
      "min": [
        -0.99903327226638794,
        -0.99903357028961182,
        -1.0000002384185791
      ],
      "type": "VEC3"
    },
    {
      "bufferView": 3,
      "byteOffset": 61984,
      "componentType": 5126,
      "count": 138,
      "max": [
        0.99999982118606567,
        0.99999988079071045,
        0.42802900075912476,
        1
      ],
      "min": [
        -0.99999988079071045,
        -0.99999982118606567,
        -0.90479624271392822,
        -1
      ],
      "type": "VEC4"
    },
    {
      "bufferView": 1,
      "byteOffset": 30992,
      "componentType": 5126,
      "count": 138,
      "max": [
        0.95406901836395264,
        1.830049991607666
      ],
      "min": [
        0.012900000438094139,
        0.063421003520488739
      ],
      "type": "VEC2"
    },
    {
      "bufferView": 0,
      "byteOffset": 71448,
      "componentType": 5125,
      "count": 456,
      "max": [
        137
      ],
      "min": [
        0
      ],
      "type": "SCALAR"
    },
    {
      "bufferView": 2,
      "byteOffset": 96288,
      "componentType": 5126,
      "count": 119,
      "max": [
        14.364089965820312,
        235.37205505371094,
        70.795013427734375
      ],
      "min": [
        -14.364110946655273,
        206.34603881835938,
        8.2185602188110352
      ],
      "type": "VEC3"
    },
    {
      "bufferView": 2,
      "byteOffset": 97716,
      "componentType": 5126,
      "count": 119,
      "max": [
        0.99930602312088013,
        0.99929589033126831,
        1.0000002384185791
      ],
      "min": [
        -0.99930572509765625,
        -0.99929618835449219,
        -1.0000002384185791
      ],
      "type": "VEC3"
    },
    {
      "bufferView": 3,
      "byteOffset": 64192,
      "componentType": 5126,
      "count": 119,
      "max": [
        1,
        1,
        0.25297448039054871,
        1
      ],
      "min": [
        -0.99994140863418579,
        -1,
        -0.24770843982696533,
        -1
      ],
      "type": "VEC4"
    },
    {
      "bufferView": 1,
      "byteOffset": 32096,
      "componentType": 5126,
      "count": 119,
      "max": [
        0.99790000915527344,
        0.9805070161819458
      ],
      "min": [
        0.0019389999797567725,
        0.019493000581860542
      ],
      "type": "VEC2"
    },
    {
      "bufferView": 0,
      "byteOffset": 73272,
      "componentType": 5125,
      "count": 648,
      "max": [
        118
      ],
      "min": [
        0
      ],
      "type": "SCALAR"
    },
    {
      "bufferView": 4,
      "componentType": 5126,
      "count": 1,
      "max": [
        1,
        0,
        0,
        0,
        0,
        1,
        0,
        0,
        0,
        0,
        1,
        0,
        0,
        0,
        0,
        1
      ],
      "min": [
        1,
        0,
        0,
        0,
        0,
        1,
        0,
        0,
        0,
        0,
        1,
        0,
        0,
        0,
        0,
        1
      ],
      "type": "MAT4"
    }
  ],
  "asset": {
    "extras": {
      "author": "garbodor1234 (https://sketchfab.com/garbodor1234)",
      "license": "CC-BY-4.0 (http://creativecommons.org/licenses/by/4.0/)",
      "source": "https://sketchfab.com/models/8045cbb2ea804c7fb18bb72ea9ea9a87",
      "title": "3DS - Pokemon X Y - 006 Charizard (1)"
    },
    "generator": "Sketchfab-3.18.6",
    "version": "2.0"
  },
  "bufferViews": [
    {
      "buffer": 0,
      "byteLength": 75864,
      "byteOffset": 0,
      "name": "floatBufferViews",
      "target": 34963
    },
    {
      "buffer": 0,
      "byteLength": 33048,
      "byteOffset": 75864,
      "byteStride": 8,
      "name": "floatBufferViews",
      "target": 34962
    },
    {
      "buffer": 0,
      "byteLength": 99144,
      "byteOffset": 108912,
      "byteStride": 12,
      "name": "floatBufferViews",
      "target": 34962
    },
    {
      "buffer": 0,
      "byteLength": 66096,
      "byteOffset": 208056,
      "byteStride": 16,
      "name": "floatBufferViews",
      "target": 34962
    },
    {
      "buffer": 0,
      "byteLength": 64,
      "byteOffset": 274152,
      "byteStride": 64,
      "name": "floatBufferViews"
    }
  ],
  "buffers": [
    {
      "byteLength": 274216,
      "uri": "scene.bin"
    }
  ],
  "images": [
    {
      "uri": "textures/Material_14_baseColor.png"
    },
    {
      "uri": "textures/Material_16_baseColor.png"
    },
    {
      "uri": "textures/Material_13_baseColor.png"
    },
    {
      "uri": "textures/Material_15_baseColor.png"
    },
    {
      "uri": "textures/Material_12_baseColor.png"
    }
  ],
  "materials": [
    {
      "doubleSided": true,
      "emissiveFactor": [
        0,
        0,
        0
      ],
      "name": "Material_12",
      "pbrMetallicRoughness": {
        "baseColorFactor": [
          1,
          1,
          1,
          1
        ],
        "baseColorTexture": {
          "index": 4,
          "texCoord": 0
        },
        "metallicFactor": 0,
        "roughnessFactor": 0.59999999999999998
      }
    },
    {
      "doubleSided": true,
      "emissiveFactor": [
        0,
        0,
        0
      ],
      "name": "Material_13",
      "pbrMetallicRoughness": {
        "baseColorFactor": [
          1,
          1,
          1,
          1
        ],
        "baseColorTexture": {
          "index": 2,
          "texCoord": 0
        },
        "metallicFactor": 0,
        "roughnessFactor": 0.59999999999999998
      }
    },
    {
      "doubleSided": true,
      "emissiveFactor": [
        0,
        0,
        0
      ],
      "name": "Material_14",
      "pbrMetallicRoughness": {
        "baseColorFactor": [
          1,
          1,
          1,
          1
        ],
        "baseColorTexture": {
          "index": 0,
          "texCoord": 0
        },
        "metallicFactor": 0,
        "roughnessFactor": 0.59999999999999998
      }
    },
    {
      "doubleSided": true,
      "emissiveFactor": [
        0,
        0,
        0
      ],
      "name": "Material_15",
      "pbrMetallicRoughness": {
        "baseColorFactor": [
          1,
          1,
          1,
          1
        ],
        "baseColorTexture": {
          "index": 3,
          "texCoord": 0
        },
        "metallicFactor": 0,
        "roughnessFactor": 0.59999999999999998
      }
    },
    {
      "doubleSided": true,
      "emissiveFactor": [
        0,
        0,
        0
      ],
      "name": "Material_16",
      "pbrMetallicRoughness": {
        "baseColorFactor": [
          1,
          1,
          1,
          1
        ],
        "baseColorTexture": {
          "index": 1,
          "texCoord": 0
        },
        "metallicFactor": 0,
        "roughnessFactor": 0.59999999999999998
      }
    }
  ],
  "meshes": [
    {
      "primitives": [
        {
          "attributes": {
            "NORMAL": 1,
            "POSITION": 0,
            "TANGENT": 2,
            "TEXCOORD_0": 3
          },
          "indices": 4,
          "material": 0,
          "mode": 4
        }
      ]
    },
    {
      "primitives": [
        {
          "attributes": {
            "NORMAL": 6,
            "POSITION": 5,
            "TANGENT": 7,
            "TEXCOORD_0": 8
          },
          "indices": 9,
          "material": 1,
          "mode": 4
        }
      ]
    },
    {
      "primitives": [
        {
          "attributes": {
            "NORMAL": 11,
            "POSITION": 10,
            "TANGENT": 12,
            "TEXCOORD_0": 13
          },
          "indices": 14,
          "material": 2,
          "mode": 4
        }
      ]
    },
    {
      "primitives": [
        {
          "attributes": {
            "NORMAL": 16,
            "POSITION": 15,
            "TANGENT": 17,
            "TEXCOORD_0": 18
          },
          "indices": 19,
          "material": 3,
          "mode": 4
        }
      ]
    },
    {
      "primitives": [
        {
          "attributes": {
            "NORMAL": 21,
            "POSITION": 20,
            "TANGENT": 22,
            "TEXCOORD_0": 23
          },
          "indices": 24,
          "material": 4,
          "mode": 4
        }
      ]
    }
  ],
  "nodes": [
    {
      "children": [
        1
      ],
      "name": "RootNode (gltf orientation matrix)",
      "rotation": [
        -0.70710678118654746,
        -0,
        -0,
        0.70710678118654757
      ]
    },
    {
      "children": [
        2
      ],
      "name": "RootNode (model correction matrix)"
    },
    {
      "children": [
        3
      ],
      "matrix": [
        1,
        0,
        0,
        0,
        0,
        0,
        1,
        0,
        0,
        -1,
        0,
        0,
        0,
        0,
        0,
        1
      ],
      "name": "Charizard.FBX"
    },
    {
      "children": [
        4
      ],
      "name": "RootNode"
    },
    {
      "children": [
        5,
        6
      ],
      "name": ""
    },
    {
      "name": "_rootJoint"
    },
    {
      "children": [
        7,
        8,
        9,
        10,
        11
      ],
      "matrix": [
        1,
        -1.2325952558871507e-32,
        0,
        0,
        7.5474691738320599e-49,
        6.123233995736766e-17,
        -1,
        0,
        1.2325952558871507e-32,
        1,
        6.123233995736766e-17,
        0,
        0,
        0,
        0,
        1
      ],
      "name": ""
    },
    {
      "mesh": 0,
      "name": ""
    },
    {
      "mesh": 1,
      "name": ""
    },
    {
      "mesh": 2,
      "name": ""
    },
    {
      "mesh": 3,
      "name": ""
    },
    {
      "mesh": 4,
      "name": ""
    }
  ],
  "samplers": [
    {
      "magFilter": 9729,
      "minFilter": 9987,
      "wrapS": 10497,
      "wrapT": 10497
    }
  ],
  "scene": 0,
  "scenes": [
    {
      "name": "OSG_Scene",
      "nodes": [
        0
      ]
    }
  ],
  "skins": [
    {
      "inverseBindMatrices": 25,
      "joints": [
        5
      ],
      "skeleton": 5
    }
  ],
  "textures": [
    {
      "sampler": 0,
      "source": 0
    },
    {
      "sampler": 0,
      "source": 1
    },
    {
      "sampler": 0,
      "source": 2
    },
    {
      "sampler": 0,
      "source": 3
    },
    {
      "sampler": 0,
      "source": 4
    }
  ]
}

